<?xml version="1.0" standalone="no"?>
<!DOCTYPE svg PUBLIC "-//W3C//DTD SVG 20010904//EN"
 "http://www.w3.org/TR/2001/REC-SVG-20010904/DTD/svg10.dtd">
<svg version="1.0" xmlns="http://www.w3.org/2000/svg"
 viewBox="0 0 2600.000000 2600.000000"
 preserveAspectRatio="xMidYMid meet">
<metadata>
Created by potrace 1.15, written by Peter Selinger 2001-2017
</metadata>
<g transform="translate(0.000000,2600.000000) scale(0.100000,-0.100000)"
fill="#000000" stroke="none">
<path d="M5085 15812 l-580 -1787 -1883 -5 -1882 -5 1520 -1104 c836 -608
1520 -1107 1520 -1110 0 -3 -260 -807 -579 -1786 -318 -979 -577 -1782 -575
-1784 1 -2 685 493 1519 1099 834 606 1522 1100 1528 1097 7 -2 683 -492 1502
-1087 820 -595 1497 -1087 1505 -1093 8 -6 -21 26 -65 72 -157 162 -2946 2906
-2954 2906 -4 0 -610 -578 -1347 -1285 -736 -707 -1348 -1293 -1361 -1303
l-22 -18 19 43 c10 24 352 758 759 1633 656 1410 737 1591 723 1600 -10 7
-765 461 -1679 1010 -915 549 -1662 999 -1660 1000 1 2 857 -82 1902 -185
1045 -103 1901 -186 1903 -185 2 2 175 813 384 1804 210 990 384 1799 386
1797 1 -2 188 -806 413 -1787 225 -981 412 -1785 414 -1788 3 -2 925 99 2051
225 l2045 229 -1880 3 -1880 2 -95 293 c-872 2683 -1066 3281 -1069 3283 -1 1
-263 -802 -582 -1784z"/>
<path d="M21645 16672 c-232 -225 -699 -646 -731 -659 -13 -5 -463 262 -769
455 -104 66 -192 119 -194 117 -1 -2 32 -100 74 -217 66 -180 285 -829 285
-842 0 -14 -523 -387 -810 -577 l-203 -134 219 -3 c195 -3 463 5 869 25 l131
6 63 -234 c35 -129 99 -375 142 -548 43 -172 79 -315 81 -317 4 -3 12 15 141
311 87 201 230 559 292 733 39 106 52 133 69 137 12 2 77 11 146 20 279 37
1015 166 1080 191 8 3 -150 87 -360 193 -357 178 -616 314 -633 330 -5 5 14
86 42 182 83 289 247 968 239 989 -2 4 -79 -67 -173 -158z"/>
<path d="M24175 15178 c-150 -138 -426 -375 -636 -544 -1414 -1141 -2999
-2092 -4479 -2686 -996 -400 -1913 -645 -2945 -788 -1466 -202 -3169 -268
-4930 -190 -1250 56 -2559 175 -3614 331 -112 16 -205 28 -207 26 -5 -5 620
-128 846 -167 2108 -362 4320 -513 6150 -420 944 48 1831 147 2480 276 1424
284 2840 856 4235 1712 885 543 1745 1184 2535 1891 162 145 693 661 680 660
-3 0 -54 -46 -115 -101z"/>
<path d="M17470 14753 c0 -4 11 -96 25 -203 44 -344 85 -734 77 -741 -21 -19
-664 -303 -882 -389 l-85 -34 90 -18 c163 -33 481 -88 705 -122 121 -18 223
-36 226 -39 7 -7 39 -491 49 -742 4 -99 11 -188 14 -198 5 -14 36 24 133 165
173 253 210 309 343 519 64 101 118 185 119 186 1 1 42 -2 91 -7 247 -25 975
-62 975 -50 0 4 -71 64 -157 135 -204 167 -573 484 -573 491 0 3 47 91 104
197 132 245 358 696 354 708 -2 5 -52 -21 -113 -57 -282 -170 -773 -444 -796
-444 -9 0 -457 419 -549 515 -66 68 -150 140 -150 128z"/>
<path d="M24390 13883 c-363 -367 -911 -794 -1480 -1150 -919 -576 -2000
-1080 -3172 -1478 -1151 -391 -2118 -620 -3058 -724 -760 -84 -1360 -115
-2240 -115 -633 0 -911 8 -1445 39 -1542 92 -3419 346 -4914 666 -128 27 -235
48 -237 46 -6 -6 402 -117 722 -196 1320 -328 2748 -572 4154 -710 1041 -103
2225 -123 3240 -56 1226 82 2163 268 3365 670 1999 668 3627 1583 4784 2690
138 133 417 436 399 435 -1 0 -55 -53 -118 -117z"/>
<path d="M15116 13448 c-3 -73 -11 -248 -17 -388 -7 -140 -13 -257 -14 -258
-6 -7 -338 -102 -530 -153 -104 -27 -215 -57 -245 -66 l-55 -16 130 -44 c72
-24 251 -82 400 -127 l269 -84 -2 -43 c-6 -101 -34 -435 -47 -578 -8 -85 -13
-156 -12 -158 6 -5 474 516 572 635 1 1 94 -20 206 -48 343 -84 639 -147 632
-136 -4 6 -32 40 -63 76 -170 193 -430 515 -426 526 2 6 60 83 128 170 138
177 368 487 364 491 -2 2 -88 -29 -192 -68 -104 -39 -284 -104 -400 -144
l-212 -74 -19 22 c-28 31 -242 309 -353 457 -51 69 -96 129 -100 133 -4 5 -11
-51 -14 -125z"/>
<path d="M13070 12538 l-45 -293 -175 -32 c-96 -17 -241 -42 -322 -54 -82 -13
-148 -26 -148 -30 0 -7 232 -110 460 -205 63 -26 116 -48 118 -49 2 -2 -21
-135 -51 -296 -30 -162 -54 -295 -53 -296 3 -3 233 204 390 351 l96 88 202
-75 c237 -88 403 -147 411 -147 3 0 -68 113 -157 252 l-164 252 224 230 c123
126 222 231 220 233 -2 2 -61 -10 -132 -27 -232 -56 -497 -111 -509 -106 -7 2
-79 115 -160 250 -82 135 -151 246 -155 246 -3 0 -26 -132 -50 -292z"/>
<path d="M11497 12173 c-26 -114 -49 -208 -50 -210 -2 -1 -99 -12 -217 -23
-118 -12 -225 -25 -238 -28 -18 -6 14 -26 180 -111 112 -57 204 -105 206 -107
2 -1 -21 -97 -51 -213 -30 -116 -53 -211 -51 -211 2 0 85 65 185 145 99 80
184 145 188 145 3 0 98 -43 209 -95 112 -52 207 -95 212 -95 4 0 -36 84 -91
186 -54 103 -99 190 -99 194 0 4 74 71 164 149 162 138 185 161 169 161 -4 0
-105 -13 -223 -30 -118 -16 -222 -30 -230 -30 -10 0 -49 68 -110 190 -52 105
-97 190 -100 190 -3 0 -27 -93 -53 -207z"/>
<path d="M10358 12083 c-8 -26 -27 -94 -44 -150 -29 -101 -29 -101 -64 -107
-19 -3 -71 -6 -115 -7 -44 -1 -109 -4 -145 -8 l-64 -6 147 -85 c81 -46 147
-89 147 -95 0 -5 -20 -73 -44 -150 -24 -77 -43 -141 -41 -143 2 -2 65 41 140
95 76 54 141 97 144 96 4 -1 73 -38 154 -82 81 -44 147 -78 147 -76 0 3 -29
68 -65 147 -36 78 -65 143 -65 144 0 1 61 49 135 105 74 56 134 103 132 105
-1 2 -81 -3 -177 -11 -96 -8 -175 -13 -175 -12 -49 114 -120 274 -126 280 -4
5 -13 -13 -21 -40z"/>
<path d="M9459 11882 l-35 -107 -132 -3 c-73 -1 -132 -6 -132 -10 0 -4 48 -36
105 -71 58 -35 105 -65 105 -67 0 -2 -18 -53 -40 -115 l-40 -111 28 18 c15 9
64 42 109 72 l82 54 108 -65 c59 -36 109 -64 111 -63 1 2 -18 51 -42 110 l-44
107 32 23 c17 12 65 47 106 76 l75 52 -135 -5 -135 -6 -40 106 c-22 57 -42
106 -46 108 -3 2 -21 -44 -40 -103z"/>
<path d="M8815 11826 l-27 -75 -97 -3 -96 -3 73 -49 c39 -27 72 -53 72 -57 0
-5 -11 -38 -25 -75 -14 -36 -25 -70 -25 -75 0 -5 30 10 68 34 37 24 72 46 78
50 6 3 44 -16 84 -43 41 -27 76 -48 77 -46 2 2 -8 34 -22 71 -14 37 -25 73
-25 80 0 6 32 32 70 56 39 24 70 47 70 51 0 5 -42 8 -93 8 l-93 0 -24 68 c-12
37 -26 71 -30 75 -4 5 -20 -25 -35 -67z"/>
<path d="M8352 11789 l-21 -51 -65 4 c-36 2 -63 1 -60 -3 2 -4 24 -20 49 -36
25 -15 45 -31 45 -35 0 -4 -9 -30 -20 -58 -11 -27 -18 -50 -15 -50 3 0 27 14
55 31 l51 31 54 -36 c30 -20 55 -34 55 -32 0 2 -7 23 -15 46 -22 61 -20 66 30
96 25 14 45 30 45 35 0 5 -28 9 -63 9 l-63 0 -13 50 c-7 28 -16 50 -20 50 -4
0 -17 -23 -29 -51z"/>
<path d="M8031 11784 c-12 -33 -14 -34 -64 -34 -56 -1 -56 0 6 -45 17 -12 17
-15 3 -50 -21 -49 -21 -48 17 -25 40 25 55 25 87 0 36 -28 41 -25 25 19 l-13
38 41 24 42 24 -51 3 c-50 3 -52 4 -58 37 -9 47 -20 50 -35 9z"/>
<path d="M7800 11778 c-10 -22 -20 -28 -44 -28 l-31 0 24 -19 c20 -15 22 -21
12 -39 -16 -31 -14 -34 16 -18 25 13 30 12 55 -6 29 -20 32 -17 19 17 -6 15
-2 24 18 37 l26 18 -32 6 c-23 4 -35 14 -41 33 l-9 26 -13 -27z"/>
<path d="M7637 11777 c-3 -9 -16 -17 -28 -17 -20 0 -21 -1 -6 -18 12 -13 13
-22 5 -35 -9 -17 -8 -18 12 -7 16 9 25 9 33 1 16 -16 27 -13 20 4 -3 9 2 22
13 30 18 14 18 14 -2 15 -12 0 -25 10 -31 22 -8 19 -10 20 -16 5z"/>
<path d="M7376 11773 c-10 -10 -7 -21 8 -26 8 -3 17 0 20 8 5 14 -17 28 -28
18z"/>
<path d="M7435 11772 c-6 -4 -10 -14 -11 -22 -1 -19 33 -21 40 -4 6 16 -16 35
-29 26z"/>
<path d="M7520 11770 c0 -5 -8 -10 -17 -10 -14 0 -15 -2 -4 -9 8 -5 10 -14 6
-22 -6 -9 -4 -11 7 -6 9 3 19 2 24 -3 5 -5 14 2 21 16 9 19 8 24 -3 24 -8 0
-14 5 -14 10 0 6 -4 10 -10 10 -5 0 -10 -4 -10 -10z"/>
<path d="M7808 11173 c7 -3 16 -2 19 1 4 3 -2 6 -13 5 -11 0 -14 -3 -6 -6z"/>
</g>
</svg>
